<svg xmlns="http://www.w3.org/2000/svg" width="32" height="32" viewBox="0 0 32 32" fill="none">
<path d="M30.08 16.333C30.08 15.293 29.9867 14.293 29.8133 13.333H16V19.013H23.8933C23.5467 20.8397 22.5067 22.3863 20.9467 23.4263V27.1197H25.7067C28.48 24.5597 30.08 20.7997 30.08 16.333Z" fill="#4285F4"/>
<path d="M16.0001 30.6665C19.9601 30.6665 23.2801 29.3598 25.7067 27.1198L20.9467 23.4265C19.6401 24.3065 17.9734 24.8398 16.0001 24.8398C12.1867 24.8398 8.94674 22.2665 7.78674 18.7998H2.90674V22.5865C5.32007 27.3731 10.2667 30.6665 16.0001 30.6665Z" fill="#34A853"/>
<path d="M7.78659 18.7868C7.49325 17.9068 7.31992 16.9734 7.31992 16.0001C7.31992 15.0268 7.49325 14.0934 7.78659 13.2134V9.42676H2.90659C1.90659 11.4001 1.33325 13.6268 1.33325 16.0001C1.33325 18.3734 1.90659 20.6001 2.90659 22.5734L6.70659 19.6134L7.78659 18.7868Z" fill="#FBBC05"/>
<path d="M16.0001 7.17301C18.1601 7.17301 20.0801 7.91967 21.6134 9.35967L25.8134 5.15967C23.2667 2.78634 19.9601 1.33301 16.0001 1.33301C10.2667 1.33301 5.32007 4.62634 2.90674 9.42634L7.78674 13.213C8.94674 9.74634 12.1867 7.17301 16.0001 7.17301Z" fill="#EA4335"/>
</svg>