<svg xmlns="http://www.w3.org/2000/svg" width="14" height="14" viewBox="0 0 14 14" fill="none">
  <g clip-path="url(#clip0_2336_4196)">
    <path d="M7.58325 5.24967L6.41659 5.24967L6.41659 4.08301L7.58325 4.08301L7.58325 5.24967ZM7.58325 9.91634L6.41659 9.91634L6.41659 6.41634L7.58325 6.41634L7.58325 9.91634ZM7.00575 12.833C10.2258 12.833 12.8333 10.2197 12.8333 6.99967C12.8333 3.77967 10.2258 1.16634 7.00575 1.16634C3.77992 1.16634 1.16658 3.77967 1.16658 6.99967C1.16658 10.2197 3.77992 12.833 7.00575 12.833ZM6.99992 2.33301C9.57825 2.33301 11.6666 4.42134 11.6666 6.99967C11.6666 9.57801 9.57825 11.6663 6.99992 11.6663C4.42159 11.6663 2.33325 9.57801 2.33325 6.99967C2.33325 4.42134 4.42159 2.33301 6.99992 2.33301Z" fill="#429488"/>
  </g>
  <defs>
    <clipPath id="clip0_2336_4196">
      <rect width="14" height="14" fill="white" transform="translate(14 14) rotate(-180)"/>
    </clipPath>
  </defs>
</svg>