<svg xmlns="http://www.w3.org/2000/svg" width="60" height="60" viewBox="0 0 60 60" fill="none">
  <g filter="url(#filter0_d_2425_1929)">
    <rect x="6" y="5" width="48" height="48" rx="10" fill="white"/>
  </g>
  <path d="M31.0916 22.3535H26.1232C26.0365 22.3535 25.9661 22.4239 25.9661 22.5107V36.9048C25.9661 38.5469 27.3099 39.8904 28.9523 39.8904H31.0916C32.734 39.8904 34.0778 38.5469 34.0778 36.9048V25.3392C34.0778 23.6971 32.734 22.3535 31.0916 22.3535Z" fill="#429488"/>
  <path d="M40.3353 18.1104H35.3669C35.2801 18.1104 35.2097 18.1808 35.2097 18.2675V36.9044C35.2097 38.5465 36.5535 39.8901 38.1959 39.8901H40.3353C41.9777 39.8901 43.3215 38.5465 43.3215 36.9044V21.096C43.3215 19.4539 41.9777 18.1104 40.3353 18.1104Z" fill="#429488"/>
  <path d="M21.804 27.4443H16.8356C16.7489 27.4443 16.6785 27.5147 16.6785 27.6015V36.9042C16.6785 38.5463 18.0223 39.8899 19.6647 39.8899H21.804C23.4464 39.8899 24.7902 38.5463 24.7902 36.9042V30.43C24.7902 28.7879 23.4464 27.4443 21.804 27.4443Z" fill="#6AB4AC"/>
  <path d="M17.6529 18.1104H16.8356C16.7489 18.1104 16.6785 18.1808 16.6785 18.2675V18.9454C16.6785 20.5944 18.0153 21.9311 19.6647 21.9311H20.4819C20.5687 21.9311 20.6391 21.8607 20.6391 21.7739V21.096C20.6391 19.447 19.3022 18.1104 17.6529 18.1104Z" fill="#6AB4AC"/>
  <defs>
    <filter id="filter0_d_2425_1929" x="0" y="0" width="60" height="60" filterUnits="userSpaceOnUse" color-interpolation-filters="sRGB">
      <feFlood flood-opacity="0" result="BackgroundImageFix"/>
      <feColorMatrix in="SourceAlpha" type="matrix" values="0 0 0 0 0 0 0 0 0 0 0 0 0 0 0 0 0 0 127 0" result="hardAlpha"/>
      <feMorphology radius="1" operator="dilate" in="SourceAlpha" result="effect1_dropShadow_2425_1929"/>
      <feOffset dy="1"/>
      <feGaussianBlur stdDeviation="2.5"/>
      <feComposite in2="hardAlpha" operator="out"/>
      <feColorMatrix type="matrix" values="0 0 0 0 0 0 0 0 0 0 0 0 0 0 0 0 0 0 0.1 0"/>
      <feBlend mode="normal" in2="BackgroundImageFix" result="effect1_dropShadow_2425_1929"/>
      <feBlend mode="normal" in="SourceGraphic" in2="effect1_dropShadow_2425_1929" result="shape"/>
    </filter>
  </defs>
</svg>