<svg width="221" height="34" viewBox="0 0 221 34" fill="none" xmlns="http://www.w3.org/2000/svg">
<g clip-path="url(#clip0_2348_4891)">
<path d="M23.0137 6.57715H15.3124C15.1778 6.57715 15.0686 6.68635 15.0686 6.82093V29.1364C15.0686 31.6822 17.1517 33.7653 19.6976 33.7653H23.0137C25.5596 33.7653 27.6427 31.6822 27.6427 29.1364V11.2061C27.6427 8.66024 25.5596 6.57715 23.0137 6.57715Z" fill="#429488"/>
<path d="M37.3416 0H29.6403C29.5057 0 29.3965 0.109201 29.3965 0.243785V29.1367C29.3965 31.6826 31.4796 33.7657 34.0254 33.7657H37.3416C39.8875 33.7657 41.9706 31.6826 41.9706 29.1367V4.62896C41.9706 2.08309 39.8875 0 37.3416 0Z" fill="#429488"/>
<path d="M8.6175 14.4707H0.916148C0.781565 14.4707 0.672363 14.5799 0.672363 14.7145V29.1367C0.672363 31.6826 2.75545 33.7657 5.30132 33.7657H8.6175C11.1634 33.7657 13.2465 31.6826 13.2465 29.1367V19.0997C13.2465 16.5538 11.1634 14.4707 8.6175 14.4707Z" fill="#6AB4AC"/>
<path d="M2.18288 0H0.916148C0.781565 0 0.672363 0.109201 0.672363 0.243785V1.29507C0.672363 3.85156 2.74483 5.92403 5.30132 5.92403H6.56806C6.70264 5.92403 6.81184 5.81483 6.81184 5.68024V4.62896C6.81125 2.07247 4.73938 0 2.18288 0Z" fill="#6AB4AC"/>
<path d="M68.9622 9.30176C72.2211 9.30176 74.3331 11.4226 74.3331 15.3881V26.1902C74.3331 26.7161 74.0397 27.0089 73.5144 27.0089H70.7041C70.1781 27.0089 69.8854 26.7155 69.8854 26.1902V15.724C69.8854 14.0086 68.8683 13.4219 67.6872 13.4219C66.506 13.4219 65.1354 14.086 65.1354 16.3361V26.1902C65.1354 26.7161 64.842 27.0089 64.3167 27.0089H61.5064C60.9804 27.0089 60.6871 26.7155 60.6871 26.1902V15.724C60.6871 14.0086 59.67 13.4219 58.4889 13.4219C57.3077 13.4219 55.9371 14.086 55.9371 16.3361V26.1902C55.9371 26.7161 55.6437 27.0089 55.1178 27.0089H52.3075C51.7815 27.0089 51.4888 26.7155 51.4888 26.1902V10.5862C51.4888 10.0603 51.7821 9.76749 52.3075 9.76749H55.1178C55.6437 9.76749 55.9371 10.0609 55.9371 10.5862V11.4498C56.8703 10.0508 58.3313 9.30176 60.0667 9.30176C61.8021 9.30176 63.3404 10.0809 64.2299 11.5773C65.3963 10.0963 66.9481 9.30176 68.9633 9.30176H68.9622Z" fill="#3A3A3A"/>
<path d="M104.616 9.30176C107.823 9.30176 110.219 11.7673 110.219 15.992V26.1908C110.219 26.7167 109.926 27.0095 109.4 27.0095H106.59C106.064 27.0095 105.771 26.7161 105.771 26.1908V16.3284C105.771 14.3539 104.599 13.4231 103.038 13.4231C101.288 13.4231 99.9259 14.4319 99.9259 17.0267V26.1908C99.9259 26.7167 99.6325 27.0095 99.1072 27.0095H96.2968C95.7709 27.0095 95.4775 26.7161 95.4775 26.1908V10.5862C95.4775 10.0603 95.7709 9.76749 96.2968 9.76749H99.1072C99.6331 9.76749 99.9259 10.0609 99.9259 10.5862V11.5395C100.892 10.0809 102.472 9.30176 104.616 9.30176H104.616Z" fill="#3A3A3A"/>
<path d="M130.33 18.4056C130.33 18.7763 130.304 19.121 130.278 19.4657C130.218 19.9917 129.891 20.2243 129.399 20.2243H117.208C117.813 22.6745 119.674 23.7937 121.881 23.7937C123.183 23.7937 124.347 23.2766 125.028 22.5352C125.338 22.2507 125.606 22.0783 126.037 22.0783L128.796 22.0523C129.391 22.0523 129.718 22.4319 129.468 22.949C128.166 25.8543 125.338 27.4752 121.821 27.4752C116.208 27.4752 112.579 23.544 112.579 18.3885C112.579 13.233 116.295 9.30176 121.717 9.30176C126.812 9.30176 130.33 13.3192 130.33 18.4056H130.33ZM125.885 16.7245C125.37 14.2601 123.558 13.2932 121.692 13.2932C119.333 13.2932 117.719 14.5653 117.191 16.7245H125.885H125.885Z" fill="#3A3A3A"/>
<path d="M143.258 9.76719H146.302C146.888 9.76719 147.181 10.1037 146.983 10.6898L139.371 33.2514C139.232 33.7083 138.879 33.9066 138.422 33.9066H135.378C134.792 33.9066 134.499 33.5701 134.697 32.984L136.801 26.7684L130.585 10.7158C130.378 10.1556 130.637 9.76719 131.232 9.76719H134.266C134.723 9.76719 135.025 9.98264 135.189 10.4135L139.025 20.6206L142.336 10.4478C142.474 9.99091 142.801 9.7666 143.258 9.7666V9.76719Z" fill="#3A3A3A"/>
<path d="M166.243 9.30176C169.502 9.30176 171.614 11.4226 171.614 15.3881V26.1902C171.614 26.7161 171.321 27.0089 170.796 27.0089H167.985C167.459 27.0089 167.167 26.7155 167.167 26.1902V15.724C167.167 14.0086 166.15 13.4219 164.968 13.4219C163.787 13.4219 162.417 14.086 162.417 16.3361V26.1902C162.417 26.7161 162.123 27.0089 161.598 27.0089H158.788C158.262 27.0089 157.968 26.7155 157.968 26.1902V15.724C157.968 14.0086 156.951 13.4219 155.77 13.4219C154.589 13.4219 153.218 14.086 153.218 16.3361V26.1902C153.218 26.7161 152.925 27.0089 152.399 27.0089H149.589C149.063 27.0089 148.77 26.7155 148.77 26.1902V10.5862C148.77 10.0603 149.063 9.76749 149.589 9.76749H152.399C152.925 9.76749 153.218 10.0609 153.218 10.5862V11.4498C154.152 10.0508 155.613 9.30176 157.348 9.30176C159.083 9.30176 160.622 10.0809 161.511 11.5773C162.678 10.0963 164.229 9.30176 166.245 9.30176H166.243Z" fill="#3A3A3A"/>
<path d="M191.764 18.4056C191.764 18.7763 191.738 19.121 191.712 19.4657C191.651 19.9917 191.324 20.2243 190.832 20.2243H178.642C179.246 22.6745 181.107 23.7937 183.314 23.7937C184.616 23.7937 185.78 23.2766 186.461 22.5352C186.772 22.2507 187.039 22.0783 187.47 22.0783L190.229 22.0523C190.824 22.0523 191.152 22.4319 190.901 22.949C189.6 25.8543 186.772 27.4752 183.254 27.4752C177.642 27.4752 174.012 23.544 174.012 18.3885C174.012 13.233 177.728 9.30176 183.15 9.30176C188.246 9.30176 191.763 13.3192 191.763 18.4056H191.764ZM187.318 16.7245C186.804 14.2601 184.991 13.2932 183.126 13.2932C180.766 13.2932 179.152 14.5653 178.624 16.7245H187.319H187.318Z" fill="#3A3A3A"/>
<path d="M203.476 9.30176C206.683 9.30176 209.08 11.7673 209.08 15.992V26.1908C209.08 26.7167 208.786 27.0095 208.261 27.0095H205.451C204.925 27.0095 204.632 26.7161 204.632 26.1908V16.3284C204.632 14.3539 203.46 13.4231 201.899 13.4231C200.149 13.4231 198.787 14.4319 198.787 17.0267V26.1908C198.787 26.7167 198.494 27.0095 197.968 27.0095H195.158C194.632 27.0095 194.339 26.7161 194.339 26.1908V10.5862C194.339 10.0603 194.632 9.76749 195.158 9.76749H197.968C198.494 9.76749 198.787 10.0609 198.787 10.5862V11.5395C199.753 10.0809 201.334 9.30176 203.478 9.30176H203.476Z" fill="#3A3A3A"/>
<path d="M221 10.587V13.225C221 13.7509 220.707 14.0437 220.181 14.0437H218.034V26.191C218.034 26.7169 217.741 27.0097 217.216 27.0097H214.405C213.879 27.0097 213.586 26.7164 213.586 26.191V14.0437H211.431C210.905 14.0437 210.612 13.7503 210.612 13.225V10.587C210.612 10.0611 210.906 9.7683 211.431 9.7683H213.586V5.06969C213.586 4.54375 213.879 4.25098 214.405 4.25098H217.216C217.742 4.25098 218.034 4.54434 218.034 5.06969V9.7683H220.181C220.707 9.7683 221 10.0617 221 10.587Z" fill="#3A3A3A"/>
<path d="M80.7417 11.0791H77.6298C77.2992 11.0791 77.0312 11.3471 77.0312 11.6776V14.2595C77.0312 20.5389 82.1218 25.6294 88.4012 25.6294H91.5131C91.8437 25.6294 92.1117 25.3615 92.1117 25.0309V22.449C92.1117 16.1697 87.0211 11.0791 80.7417 11.0791Z" fill="#429488"/>
</g>
<defs>
<clipPath id="clip0_2348_4891">
<rect width="221" height="33.9067" fill="white"/>
</clipPath>
</defs>
</svg>
