<svg width="1684" height="259" viewBox="0 0 1684 259" fill="none" xmlns="http://www.w3.org/2000/svg">
<path d="M175.812 50.2422H117.146C116.12 50.2422 115.289 51.0763 115.289 52.1044V222.563C115.289 242.01 131.157 257.922 150.55 257.922H175.812C195.205 257.922 211.074 242.01 211.074 222.563V85.6009C211.074 66.1541 195.205 50.2422 175.812 50.2422Z" fill="#429488"/>
<path d="M284.956 0H226.29C225.264 0 224.433 0.834146 224.433 1.86217V222.564C224.433 242.01 240.301 257.922 259.694 257.922H284.956C304.349 257.922 320.218 242.01 320.218 222.564V35.3588C320.218 15.9119 304.349 0 284.956 0Z" fill="#429488"/>
<path d="M66.1458 110.535H7.47962C6.45442 110.535 5.62256 111.369 5.62256 112.397V222.563C5.62256 242.01 21.4908 257.922 40.8843 257.922H66.1458C85.5394 257.922 101.408 242.01 101.408 222.563V145.894C101.408 126.447 85.5394 110.535 66.1458 110.535Z" fill="#6AB4AC"/>
<path d="M17.1292 0H7.47962C6.45442 0 5.62256 0.834146 5.62256 1.86217V9.89252C5.62256 29.4206 21.4099 45.2513 40.8843 45.2513H50.5339C51.5591 45.2513 52.3909 44.4171 52.3909 43.3891V35.3588C52.3864 15.8307 36.6036 0 17.1292 0Z" fill="#6AB4AC"/>
<path d="M525.829 71.0557C550.655 71.0557 566.743 87.2561 566.743 117.547V200.06C566.743 204.077 564.508 206.314 560.507 206.314H539.099C535.092 206.314 532.862 204.073 532.862 200.06V120.112C532.862 107.01 525.114 102.528 516.117 102.528C507.119 102.528 496.678 107.6 496.678 124.788V200.06C496.678 204.077 494.444 206.314 490.442 206.314H469.034C465.027 206.314 462.793 204.073 462.793 200.06V120.112C462.793 107.01 455.045 102.528 446.047 102.528C437.05 102.528 426.609 107.6 426.609 124.788V200.06C426.609 204.077 424.374 206.314 420.368 206.314H398.96C394.953 206.314 392.723 204.073 392.723 200.06V80.867C392.723 76.8496 394.958 74.6132 398.96 74.6132H420.368C424.374 74.6132 426.609 76.8541 426.609 80.867V87.4635C433.718 76.7775 444.847 71.0557 458.067 71.0557C471.286 71.0557 483.004 77.0074 489.781 88.4375C498.666 77.1246 510.487 71.0557 525.838 71.0557H525.829Z" fill="#3A3A3A"/>
<path d="M797.424 71.0557C821.854 71.0557 840.11 89.8893 840.11 122.159V200.064C840.11 204.082 837.875 206.318 833.869 206.318H812.461C808.454 206.318 806.224 204.077 806.224 200.064V124.73C806.224 109.647 797.294 102.537 785.405 102.537C772.073 102.537 761.699 110.242 761.699 130.064V200.064C761.699 204.082 759.465 206.318 755.463 206.318H734.055C730.048 206.318 727.813 204.077 727.813 200.064V80.867C727.813 76.8496 730.048 74.6132 734.055 74.6132H755.463C759.469 74.6132 761.699 76.8541 761.699 80.867V88.1489C769.056 77.0074 781.097 71.0557 797.429 71.0557H797.424Z" fill="#3A3A3A"/>
<path d="M993.311 140.596C993.311 143.428 993.113 146.061 992.915 148.694C992.457 152.712 989.961 154.488 986.215 154.488H893.353C897.958 173.205 912.135 181.754 928.948 181.754C938.863 181.754 947.73 177.804 952.919 172.141C955.284 169.967 957.321 168.651 960.603 168.651L981.62 168.452C986.152 168.452 988.648 171.352 986.742 175.301C976.827 197.494 955.284 209.876 928.489 209.876C885.736 209.876 858.087 179.846 858.087 140.466C858.087 101.085 886.393 71.0557 927.698 71.0557C966.512 71.0557 993.306 101.743 993.306 140.596H993.311ZM959.448 127.755C955.527 108.93 941.722 101.545 927.509 101.545C909.536 101.545 897.243 111.261 893.218 127.755H959.452H959.448Z" fill="#3A3A3A"/>
<path d="M1091.79 74.609H1114.97C1119.44 74.609 1121.67 77.1791 1120.16 81.6564L1062.18 253.995C1061.12 257.485 1058.43 259 1054.95 259H1031.77C1027.3 259 1025.07 256.43 1026.58 251.953L1042.6 204.474L995.253 81.8548C993.675 77.5758 995.649 74.609 1000.18 74.609H1023.29C1026.77 74.609 1029.07 76.2547 1030.32 79.5462L1059.54 157.514L1084.76 79.8078C1085.81 76.3179 1088.31 74.6045 1091.79 74.6045V74.609Z" fill="#3A3A3A"/>
<path d="M1266.88 71.0557C1291.71 71.0557 1307.8 87.2561 1307.8 117.547V200.06C1307.8 204.077 1305.56 206.314 1301.56 206.314H1280.15C1276.15 206.314 1273.92 204.073 1273.92 200.06V120.112C1273.92 107.01 1266.17 102.528 1257.17 102.528C1248.17 102.528 1237.73 107.6 1237.73 124.788V200.06C1237.73 204.077 1235.5 206.314 1231.5 206.314H1210.09C1206.08 206.314 1203.85 204.073 1203.85 200.06V120.112C1203.85 107.01 1196.1 102.528 1187.1 102.528C1178.1 102.528 1167.66 107.6 1167.66 124.788V200.06C1167.66 204.077 1165.43 206.314 1161.42 206.314H1140.01C1136.01 206.314 1133.78 204.073 1133.78 200.06V80.867C1133.78 76.8496 1136.01 74.6132 1140.01 74.6132H1161.42C1165.43 74.6132 1167.66 76.8541 1167.66 80.867V87.4635C1174.77 76.7775 1185.9 71.0557 1199.12 71.0557C1212.34 71.0557 1224.06 77.0074 1230.84 88.4375C1239.72 77.1246 1251.54 71.0557 1266.89 71.0557H1266.88Z" fill="#3A3A3A"/>
<path d="M1461.29 140.596C1461.29 143.428 1461.09 146.061 1460.89 148.694C1460.43 152.712 1457.94 154.488 1454.19 154.488H1361.33C1365.93 173.205 1380.11 181.754 1396.92 181.754C1406.84 181.754 1415.71 177.804 1420.89 172.141C1423.26 169.967 1425.3 168.651 1428.58 168.651L1449.6 168.452C1454.13 168.452 1456.62 171.352 1454.72 175.301C1444.8 197.494 1423.26 209.876 1396.46 209.876C1353.71 209.876 1326.06 179.846 1326.06 140.466C1326.06 101.085 1354.37 71.0557 1395.67 71.0557C1434.49 71.0557 1461.28 101.743 1461.28 140.596H1461.29ZM1427.42 127.755C1423.5 108.93 1409.7 101.545 1395.48 101.545C1377.51 101.545 1365.22 111.261 1361.19 127.755H1427.43H1427.42Z" fill="#3A3A3A"/>
<path d="M1550.51 71.0557C1574.94 71.0557 1593.2 89.8893 1593.2 122.159V200.064C1593.2 204.082 1590.96 206.318 1586.96 206.318H1565.55C1561.55 206.318 1559.32 204.077 1559.32 200.064V124.73C1559.32 109.647 1550.39 102.537 1538.5 102.537C1525.17 102.537 1514.79 110.242 1514.79 130.064V200.064C1514.79 204.082 1512.56 206.318 1508.55 206.318H1487.15C1483.14 206.318 1480.91 204.077 1480.91 200.064V80.867C1480.91 76.8496 1483.14 74.6132 1487.15 74.6132H1508.55C1512.56 74.6132 1514.79 76.8541 1514.79 80.867V88.1489C1522.15 77.0074 1534.19 71.0557 1550.52 71.0557H1550.51Z" fill="#3A3A3A"/>
<path d="M1684 80.8672V101.017C1684 105.035 1681.77 107.271 1677.76 107.271H1661.41V200.06C1661.41 204.077 1659.17 206.314 1655.17 206.314H1633.76C1629.76 206.314 1627.52 204.073 1627.52 200.06V107.271H1611.11C1607.1 107.271 1604.87 105.03 1604.87 101.017V80.8672C1604.87 76.8498 1607.1 74.6134 1611.11 74.6134H1627.52V38.7226C1627.52 34.7052 1629.76 32.4688 1633.76 32.4688H1655.17C1659.18 32.4688 1661.41 34.7097 1661.41 38.7226V74.6134H1677.76C1681.77 74.6134 1684 76.8543 1684 80.8672Z" fill="#3A3A3A"/>
<path d="M615.562 84.6318H591.856C589.338 84.6318 587.297 86.6789 587.297 89.2039V108.926C587.297 156.891 626.075 195.776 673.909 195.776H697.615C700.133 195.776 702.174 193.729 702.174 191.204V171.482C702.174 123.517 663.396 84.6318 615.562 84.6318Z" fill="#429488"/>
</svg>
